<svg width="1920" height="1036" viewBox="0 0 1920 1036" fill="none" xmlns="http://www.w3.org/2000/svg">
<mask id="mask0" mask-type="alpha" maskUnits="userSpaceOnUse" x="0" y="0" width="1920" height="1036">
<rect width="1920" height="1036" fill="#F2F2F2"/>
</mask>
<g mask="url(#mask0)">
<path d="M274.029 196.571C-7.55957 324.774 1.02832 438.571 1.02832 772.071V1036.07H1478.53C2020.03 1036.07 1911.53 1050.07 1911.53 981.571C1911.53 913.071 1670.53 1015.57 1417.53 970.071C1271.53 943.814 1244.53 899.571 1172.03 826.071C1002.27 653.968 827.529 -55.4286 274.029 196.571Z" fill="#D8EFF7"/>
<path d="M2093 284C2093 440.849 2005.02 568 1896.5 568C1787.98 568 1655.5 611.849 1655.5 455C1655.5 298.151 1787.98 0 1896.5 0C2005.02 0 2093 127.151 2093 284Z" fill="#D8EFF7"/>
</g>
</svg>
